<?xml version="1.0" encoding="utf-8"?>
<!-- Generator: Adobe Illustrator 23.0.0, SVG Export Plug-In . SVG Version: 6.00 Build 0)  -->
<svg version="1.1" id="Layer_1" xmlns="http://www.w3.org/2000/svg" xmlns:xlink="http://www.w3.org/1999/xlink" x="0px" y="0px"
	 viewBox="0 0 113.39 101.84" style="enable-background:new 0 0 113.39 101.84;" xml:space="preserve">
<style type="text/css">
	.st0{fill:#EF4658;}
</style>
<path class="st0" d="M92.04,83.1c-9.1,9.99-22.36,16.11-37.05,15.6C29.74,97.82,9.33,77.02,8.89,51.76
	C8.41,23.59,32.29,0.87,60.86,3.29c22.83,1.93,41.27,20.22,43.42,43.03c0.8,8.48-0.64,16.55-3.77,23.71
	c-0.08,0.19-0.36,0.15-0.39-0.05c-0.17-1.18-0.38-2.41-0.61-3.69c-0.53-2.89-1.25-5.9-2.17-9.03c-0.92-3.12-2.09-5.95-3.5-8.48
	c-1.41-2.53-3.11-4.64-5.08-6.31c-1.97-1.68-4.31-2.52-7-2.52c-1.12,0-2.27,0.38-3.45,1.13c-1.18,0.76-2.34,1.71-3.45,2.86
	c-1.12,1.15-2.19,2.43-3.21,3.85c-1.02,1.41-1.97,2.83-2.86,4.24c-0.89,1.41-1.63,2.76-2.22,4.04c-0.59,1.28-1.09,2.35-1.48,3.21
	c-1.78-1.38-3.24-2.94-4.39-4.69c-1.15-1.74-2.34-3.39-3.55-4.93c-1.22-1.54-2.65-2.83-4.29-3.85c-1.65-1.02-3.85-1.53-6.61-1.53
	c-2.5-0.53-4.46-0.53-5.87,0c-1.41,0.53-2.48,1.37-3.21,2.52c-0.72,1.15-1.2,2.53-1.43,4.14c-0.23,1.61-0.48,3.29-0.74,5.03
	c-0.26,1.74-0.66,3.47-1.18,5.18c-0.53,1.71-1.38,3.19-2.56,4.44c-1.18-1.91-2.19-4.04-3.01-6.41c-0.82-2.37-1.56-4.77-2.22-7.2
	c-0.66-2.43-1.23-4.85-1.73-7.25c-0.49-2.4-0.97-4.62-1.43-6.66c-0.13,0-0.48-0.02-1.04-0.05c-0.56-0.03-0.94-0.05-1.13-0.05
	c-1.84,0-3.04,0.46-3.6,1.38c-0.56,0.92-0.84,2.2-0.84,3.85c0,1.32,0.21,3.22,0.64,5.72c0.43,2.5,1.04,5.3,1.83,8.39
	c0.79,3.09,1.76,6.25,2.91,9.47c1.15,3.22,2.43,6.17,3.85,8.83c1.41,2.66,2.97,4.83,4.69,6.51c1.71,1.68,3.48,2.52,5.33,2.52
	c0.2,0,0.51-0.06,0.94-0.2c0.43-0.13,0.85-0.33,1.28-0.59c0.43-0.26,0.84-0.51,1.23-0.74c0.39-0.23,0.66-0.44,0.79-0.64
	c0.26-3.02,0.54-5.64,0.84-7.84c0.3-2.2,0.67-4.57,1.13-7.1c0.46-2.53,0.95-4.9,1.48-7.1c0.53-2.2,1.12-4.03,1.78-5.48
	c0.66-1.45,1.35-2.17,2.07-2.17c1.97,0,3.5,0.64,4.59,1.92c1.09,1.28,1.94,2.88,2.56,4.78c0.62,1.91,1.15,4,1.58,6.26
	c0.43,2.27,0.95,4.36,1.58,6.26c0.62,1.91,1.43,3.5,2.42,4.78c0.99,1.28,2.4,1.92,4.24,1.92c0.26,0,0.79-0.05,1.58-0.15
	c0.79-0.1,1.31-0.21,1.58-0.35c0.33-0.92,0.77-2.25,1.33-4c0.56-1.74,1.2-3.65,1.92-5.72c0.72-2.07,1.54-4.16,2.47-6.26
	c0.92-2.1,1.91-4.01,2.96-5.72c1.05-1.71,2.19-3.12,3.4-4.24c1.22-1.12,2.52-1.68,3.9-1.68c0.06,0,0.13,0.02,0.2,0.05
	c0.06,0.03,0.16,0.05,0.3,0.05c0.13,0.07,0.3,0.1,0.49,0.1c0.26,0.13,0.66,0.48,1.18,1.04c0.53,0.56,0.79,0.94,0.79,1.13l6.31,28.72
	C92.52,82.19,92.38,82.72,92.04,83.1z"/>
</svg>
